<mxfile host="app.diagrams.net" agent="Mozilla/5.0 (Windows NT 10.0; Win64; x64) AppleWebKit/537.36 (KHTML, like Gecko) Chrome/131.0.0.0 Safari/537.36" version="26.0.4">
  <diagram name="Page-1" id="Kv7xAL1uLG0Eq4g3Ebbs">
    <mxGraphModel dx="139" dy="487" grid="1" gridSize="10" guides="1" tooltips="1" connect="1" arrows="1" fold="1" page="1" pageScale="1" pageWidth="850" pageHeight="1100" math="0" shadow="0">
      <root>
        <mxCell id="0" />
        <mxCell id="1" parent="0" />
        <mxCell id="fBDcnERQuijpaPTpogGk-13" value="+1" style="rounded=0;whiteSpace=wrap;html=1;" parent="1" vertex="1">
          <mxGeometry x="1840" y="880" width="60" height="60" as="geometry" />
        </mxCell>
        <mxCell id="fBDcnERQuijpaPTpogGk-16" value="data_i" style="text;html=1;align=center;verticalAlign=middle;whiteSpace=wrap;rounded=0;" parent="1" vertex="1">
          <mxGeometry x="1882.5" y="680" width="100" height="30" as="geometry" />
        </mxCell>
        <mxCell id="fBDcnERQuijpaPTpogGk-17" value="" style="endArrow=classic;html=1;rounded=0;entryX=0.166;entryY=-0.003;entryDx=0;entryDy=0;entryPerimeter=0;" parent="1" edge="1">
          <mxGeometry width="50" height="50" relative="1" as="geometry">
            <mxPoint x="1870" y="840" as="sourcePoint" />
            <mxPoint x="1870" y="880" as="targetPoint" />
          </mxGeometry>
        </mxCell>
        <mxCell id="fBDcnERQuijpaPTpogGk-30" value="" style="shape=trapezoid;perimeter=trapezoidPerimeter;whiteSpace=wrap;html=1;fixedSize=1;direction=west;" parent="1" vertex="1">
          <mxGeometry x="1790" y="780" width="120" height="60" as="geometry" />
        </mxCell>
        <mxCell id="fBDcnERQuijpaPTpogGk-32" value="bit_one [15:0]" style="text;html=1;align=center;verticalAlign=middle;whiteSpace=wrap;rounded=0;" parent="1" vertex="1">
          <mxGeometry x="1865" y="550" width="90" height="30" as="geometry" />
        </mxCell>
        <mxCell id="fBDcnERQuijpaPTpogGk-33" value="bit_inp [15:0]" style="text;html=1;align=center;verticalAlign=middle;whiteSpace=wrap;rounded=0;" parent="1" vertex="1">
          <mxGeometry x="1880" y="840" width="90" height="30" as="geometry" />
        </mxCell>
        <mxCell id="fBDcnERQuijpaPTpogGk-35" value="0" style="text;html=1;align=center;verticalAlign=middle;whiteSpace=wrap;rounded=0;" parent="1" vertex="1">
          <mxGeometry x="1856.25" y="730" width="52.5" height="30" as="geometry" />
        </mxCell>
        <mxCell id="fBDcnERQuijpaPTpogGk-36" value="" style="endArrow=classic;html=1;rounded=0;entryX=0;entryY=0.5;entryDx=0;entryDy=0;" parent="1" target="fBDcnERQuijpaPTpogGk-30" edge="1">
          <mxGeometry width="50" height="50" relative="1" as="geometry">
            <mxPoint x="1990" y="810" as="sourcePoint" />
            <mxPoint x="2060" y="770" as="targetPoint" />
          </mxGeometry>
        </mxCell>
        <mxCell id="fBDcnERQuijpaPTpogGk-37" value="rst_n" style="text;html=1;align=center;verticalAlign=middle;whiteSpace=wrap;rounded=0;" parent="1" vertex="1">
          <mxGeometry x="1920" y="780" width="60" height="30" as="geometry" />
        </mxCell>
        <mxCell id="fBDcnERQuijpaPTpogGk-39" value="1" style="text;html=1;align=center;verticalAlign=middle;whiteSpace=wrap;rounded=0;" parent="1" vertex="1">
          <mxGeometry x="1865" y="780" width="35" height="20" as="geometry" />
        </mxCell>
        <mxCell id="fBDcnERQuijpaPTpogGk-40" value="0" style="text;html=1;align=center;verticalAlign=middle;whiteSpace=wrap;rounded=0;" parent="1" vertex="1">
          <mxGeometry x="1805" y="780" width="35" height="20" as="geometry" />
        </mxCell>
        <mxCell id="fBDcnERQuijpaPTpogGk-41" value="" style="endArrow=classic;html=1;rounded=0;entryX=0.424;entryY=0.001;entryDx=0;entryDy=0;entryPerimeter=0;" parent="1" target="fBDcnERQuijpaPTpogGk-39" edge="1">
          <mxGeometry width="50" height="50" relative="1" as="geometry">
            <mxPoint x="1880" y="760" as="sourcePoint" />
            <mxPoint x="1890" y="770" as="targetPoint" />
          </mxGeometry>
        </mxCell>
        <mxCell id="fBDcnERQuijpaPTpogGk-48" value="bit_zero [15:0]" style="text;html=1;align=center;verticalAlign=middle;whiteSpace=wrap;rounded=0;" parent="1" vertex="1">
          <mxGeometry x="1700" y="550" width="90" height="30" as="geometry" />
        </mxCell>
        <mxCell id="d4XZ7zzqm2FDq9BQY2AR-1" value="" style="endArrow=classic;html=1;rounded=0;entryX=0;entryY=0.5;entryDx=0;entryDy=0;" edge="1" parent="1" target="d4XZ7zzqm2FDq9BQY2AR-3">
          <mxGeometry width="50" height="50" relative="1" as="geometry">
            <mxPoint x="1920" y="710" as="sourcePoint" />
            <mxPoint x="1860" y="705" as="targetPoint" />
          </mxGeometry>
        </mxCell>
        <mxCell id="d4XZ7zzqm2FDq9BQY2AR-3" value="" style="shape=trapezoid;perimeter=trapezoidPerimeter;whiteSpace=wrap;html=1;fixedSize=1;direction=west;" vertex="1" parent="1">
          <mxGeometry x="1762.5" y="680" width="120" height="60" as="geometry" />
        </mxCell>
        <mxCell id="d4XZ7zzqm2FDq9BQY2AR-6" value="" style="endArrow=classic;html=1;rounded=0;entryX=0.51;entryY=-0.062;entryDx=0;entryDy=0;entryPerimeter=0;exitX=0.5;exitY=0;exitDx=0;exitDy=0;" edge="1" parent="1" source="d4XZ7zzqm2FDq9BQY2AR-3" target="fBDcnERQuijpaPTpogGk-40">
          <mxGeometry width="50" height="50" relative="1" as="geometry">
            <mxPoint x="1822.36" y="760" as="sourcePoint" />
            <mxPoint x="1822.36" y="780" as="targetPoint" />
          </mxGeometry>
        </mxCell>
        <mxCell id="d4XZ7zzqm2FDq9BQY2AR-7" value="1" style="text;html=1;align=center;verticalAlign=middle;whiteSpace=wrap;rounded=0;" vertex="1" parent="1">
          <mxGeometry x="1837.5" y="680" width="35" height="20" as="geometry" />
        </mxCell>
        <mxCell id="d4XZ7zzqm2FDq9BQY2AR-8" value="0" style="text;html=1;align=center;verticalAlign=middle;whiteSpace=wrap;rounded=0;" vertex="1" parent="1">
          <mxGeometry x="1780" y="680" width="35" height="20" as="geometry" />
        </mxCell>
        <mxCell id="d4XZ7zzqm2FDq9BQY2AR-9" value="" style="endArrow=classic;html=1;rounded=0;entryX=0.82;entryY=-0.008;entryDx=0;entryDy=0;entryPerimeter=0;exitX=0;exitY=0.5;exitDx=0;exitDy=0;" edge="1" parent="1" source="d4XZ7zzqm2FDq9BQY2AR-18" target="d4XZ7zzqm2FDq9BQY2AR-7">
          <mxGeometry width="50" height="50" relative="1" as="geometry">
            <mxPoint x="1860" y="650" as="sourcePoint" />
            <mxPoint x="1958.75" y="725" as="targetPoint" />
          </mxGeometry>
        </mxCell>
        <mxCell id="d4XZ7zzqm2FDq9BQY2AR-10" value="" style="endArrow=classic;html=1;rounded=0;exitX=0;exitY=0.5;exitDx=0;exitDy=0;entryX=0.43;entryY=0.012;entryDx=0;entryDy=0;entryPerimeter=0;" edge="1" parent="1" source="d4XZ7zzqm2FDq9BQY2AR-14" target="d4XZ7zzqm2FDq9BQY2AR-8">
          <mxGeometry width="50" height="50" relative="1" as="geometry">
            <mxPoint x="1797.43" y="640" as="sourcePoint" />
            <mxPoint x="1797.43" y="681" as="targetPoint" />
          </mxGeometry>
        </mxCell>
        <mxCell id="d4XZ7zzqm2FDq9BQY2AR-11" value="" style="endArrow=classic;html=1;rounded=0;exitX=0.5;exitY=1;exitDx=0;exitDy=0;entryX=0.383;entryY=-0.018;entryDx=0;entryDy=0;entryPerimeter=0;" edge="1" parent="1" source="fBDcnERQuijpaPTpogGk-13" target="d4XZ7zzqm2FDq9BQY2AR-12">
          <mxGeometry width="50" height="50" relative="1" as="geometry">
            <mxPoint x="1890" y="970" as="sourcePoint" />
            <mxPoint x="1800" y="520" as="targetPoint" />
            <Array as="points">
              <mxPoint x="1870" y="980" />
              <mxPoint x="1600" y="980" />
              <mxPoint x="1600" y="520" />
              <mxPoint x="1789" y="520" />
            </Array>
          </mxGeometry>
        </mxCell>
        <mxCell id="d4XZ7zzqm2FDq9BQY2AR-15" value="" style="group" vertex="1" connectable="0" parent="1">
          <mxGeometry x="1770" y="600" width="50" height="40" as="geometry" />
        </mxCell>
        <mxCell id="d4XZ7zzqm2FDq9BQY2AR-12" value="" style="rounded=0;whiteSpace=wrap;html=1;" vertex="1" parent="d4XZ7zzqm2FDq9BQY2AR-15">
          <mxGeometry width="50" height="40" as="geometry" />
        </mxCell>
        <mxCell id="d4XZ7zzqm2FDq9BQY2AR-14" value="" style="triangle;whiteSpace=wrap;html=1;direction=north;" vertex="1" parent="d4XZ7zzqm2FDq9BQY2AR-15">
          <mxGeometry x="20" y="30" width="10" height="10" as="geometry" />
        </mxCell>
        <mxCell id="d4XZ7zzqm2FDq9BQY2AR-16" value="" style="group" vertex="1" connectable="0" parent="1">
          <mxGeometry x="1840" y="600" width="50" height="40" as="geometry" />
        </mxCell>
        <mxCell id="d4XZ7zzqm2FDq9BQY2AR-17" value="" style="rounded=0;whiteSpace=wrap;html=1;" vertex="1" parent="d4XZ7zzqm2FDq9BQY2AR-16">
          <mxGeometry width="50" height="40" as="geometry" />
        </mxCell>
        <mxCell id="d4XZ7zzqm2FDq9BQY2AR-18" value="" style="triangle;whiteSpace=wrap;html=1;direction=north;" vertex="1" parent="d4XZ7zzqm2FDq9BQY2AR-16">
          <mxGeometry x="20" y="30" width="10" height="10" as="geometry" />
        </mxCell>
        <mxCell id="d4XZ7zzqm2FDq9BQY2AR-21" value="" style="endArrow=classic;html=1;rounded=0;entryX=0;entryY=0.5;entryDx=0;entryDy=0;" edge="1" parent="1" target="d4XZ7zzqm2FDq9BQY2AR-12">
          <mxGeometry width="50" height="50" relative="1" as="geometry">
            <mxPoint x="1720" y="620" as="sourcePoint" />
            <mxPoint x="1747.5" y="595" as="targetPoint" />
          </mxGeometry>
        </mxCell>
        <mxCell id="d4XZ7zzqm2FDq9BQY2AR-22" value="" style="endArrow=classic;html=1;rounded=0;entryX=0;entryY=0.5;entryDx=0;entryDy=0;" edge="1" parent="1">
          <mxGeometry width="50" height="50" relative="1" as="geometry">
            <mxPoint x="1940" y="619.83" as="sourcePoint" />
            <mxPoint x="1890" y="619.83" as="targetPoint" />
          </mxGeometry>
        </mxCell>
        <mxCell id="d4XZ7zzqm2FDq9BQY2AR-23" value="i_valid &amp;amp; ~data_i" style="text;html=1;align=center;verticalAlign=middle;whiteSpace=wrap;rounded=0;" vertex="1" parent="1">
          <mxGeometry x="1680" y="590" width="60" height="30" as="geometry" />
        </mxCell>
        <mxCell id="d4XZ7zzqm2FDq9BQY2AR-24" value="i_valid &amp;amp; data_i" style="text;html=1;align=center;verticalAlign=middle;whiteSpace=wrap;rounded=0;" vertex="1" parent="1">
          <mxGeometry x="1910" y="590" width="60" height="30" as="geometry" />
        </mxCell>
        <mxCell id="d4XZ7zzqm2FDq9BQY2AR-25" value="" style="endArrow=classic;html=1;rounded=0;entryX=0.5;entryY=0;entryDx=0;entryDy=0;" edge="1" parent="1" target="d4XZ7zzqm2FDq9BQY2AR-17">
          <mxGeometry width="50" height="50" relative="1" as="geometry">
            <mxPoint x="1790" y="520" as="sourcePoint" />
            <mxPoint x="1872.5" y="470" as="targetPoint" />
            <Array as="points">
              <mxPoint x="1865" y="520" />
            </Array>
          </mxGeometry>
        </mxCell>
      </root>
    </mxGraphModel>
  </diagram>
</mxfile>
